<svg width="8" height="5" viewBox="0 0 8 5" fill="none" xmlns="http://www.w3.org/2000/svg">
<path d="M3.67412 4.70744L0.253008 1.28633C0.170924 1.20424 0.129883 1.10457 0.129883 0.987307C0.129883 0.870045 0.170924 0.770373 0.253008 0.68829L0.657561 0.292531C0.739645 0.210447 0.837852 0.169405 0.952182 0.169405C1.06651 0.169405 1.16765 0.210447 1.2556 0.292531L3.97314 3.00128L6.69069 0.292531C6.77863 0.210447 6.87977 0.169405 6.9941 0.169405C7.10843 0.169405 7.20664 0.210447 7.28872 0.292531L7.69328 0.68829C7.77536 0.770373 7.8164 0.870045 7.8164 0.987307C7.8164 1.10457 7.77536 1.20424 7.69328 1.28633L4.27216 4.70744C4.19008 4.78952 4.0904 4.83057 3.97314 4.83057C3.85588 4.83057 3.75621 4.78952 3.67412 4.70744Z" fill="#1F1E17"/>
</svg>
