<svg width="16" height="18" viewBox="0 0 16 18" fill="none" xmlns="http://www.w3.org/2000/svg">
<g clip-path="url(#clip0_4140_673)">
<path d="M15.0654 12.4629C15.0654 12.6387 15.0303 12.873 14.96 13.166C14.8896 13.459 14.8193 13.6875 14.749 13.8516C14.6084 14.1914 14.1982 14.5488 13.5186 14.9238C12.8857 15.2637 12.2646 15.4336 11.6553 15.4336C11.4678 15.4336 11.292 15.4219 11.1279 15.3984C10.9521 15.375 10.7588 15.334 10.5479 15.2754C10.3369 15.2051 10.1787 15.1523 10.0732 15.1172C9.96777 15.082 9.78027 15.0176 9.51074 14.9238C9.24121 14.8184 9.07715 14.7539 9.01855 14.7305C8.3623 14.4961 7.77637 14.2207 7.26074 13.9043C6.41699 13.377 5.53223 12.6504 4.60645 11.7246C3.69238 10.8105 2.97168 9.93164 2.44434 9.08789C2.11621 8.57227 1.83496 7.98633 1.60059 7.33008C1.58887 7.25977 1.53027 7.0957 1.4248 6.83789C1.33105 6.56836 1.26074 6.38086 1.21387 6.27539C1.17871 6.16992 1.13184 6.01172 1.07324 5.80078C1.01465 5.58984 0.973633 5.39648 0.950195 5.2207C0.926758 5.04492 0.915039 4.86914 0.915039 4.69336C0.915039 4.07227 1.08496 3.45117 1.4248 2.83008C1.7998 2.15039 2.15723 1.74023 2.49707 1.59961C2.66113 1.5293 2.88965 1.45898 3.18262 1.38867C3.47559 1.31836 3.70996 1.2832 3.88574 1.2832C3.97949 1.2832 4.0498 1.29492 4.09668 1.31836C4.21387 1.35352 4.38965 1.60547 4.62402 2.07422C4.70605 2.20312 4.81152 2.38477 4.94043 2.61914C5.05762 2.85352 5.1748 3.06445 5.29199 3.25195C5.39746 3.45117 5.49707 3.63281 5.59082 3.79688C5.61426 3.82031 5.67285 3.90234 5.7666 4.04297C5.87207 4.18359 5.94824 4.30664 5.99512 4.41211C6.04199 4.50586 6.06543 4.59961 6.06543 4.69336C6.06543 4.82227 5.96582 4.98633 5.7666 5.18555C5.5791 5.39648 5.37402 5.58398 5.15137 5.74805C4.92871 5.91211 4.71777 6.08789 4.51855 6.27539C4.33105 6.46289 4.2373 6.61523 4.2373 6.73242C4.2373 6.80273 4.25488 6.87891 4.29004 6.96094C4.3252 7.05469 4.35449 7.125 4.37793 7.17188C4.40137 7.21875 4.44824 7.30078 4.51855 7.41797C4.58887 7.52344 4.62402 7.58789 4.62402 7.61133C5.13965 8.52539 5.72559 9.31055 6.38184 9.9668C7.03809 10.623 7.82324 11.2031 8.7373 11.707C8.74902 11.7188 8.81348 11.7598 8.93066 11.8301C9.04785 11.9004 9.12988 11.9473 9.17676 11.9707C9.22363 11.9941 9.28809 12.0234 9.37012 12.0586C9.46387 12.0938 9.54004 12.1113 9.59863 12.1113C9.72754 12.1113 9.88574 12.0117 10.0732 11.8125C10.2607 11.625 10.4365 11.4199 10.6006 11.1973C10.7646 10.9746 10.9463 10.7637 11.1455 10.5645C11.3447 10.377 11.5146 10.2832 11.6553 10.2832C11.749 10.2832 11.8428 10.3066 11.9365 10.3535C12.0303 10.4004 12.1475 10.4707 12.2881 10.5645C12.4287 10.6699 12.5166 10.7285 12.5518 10.7402C12.7158 10.8457 12.8916 10.9512 13.0791 11.0566C13.2783 11.1621 13.4951 11.2793 13.7295 11.4082C13.9639 11.5371 14.1396 11.6367 14.2568 11.707C14.7256 11.9414 14.9834 12.123 15.0303 12.252C15.0537 12.2988 15.0654 12.3691 15.0654 12.4629Z" fill="#EEC044"/>
</g>
<defs>
<clipPath id="clip0_4140_673">
<rect width="14.16" height="18" fill="white" transform="matrix(1 0 0 -1 0.910156 18)"/>
</clipPath>
</defs>
</svg>
