<svg width="15" height="13" viewBox="0 0 15 13" fill="none" xmlns="http://www.w3.org/2000/svg">
<g filter="url(#filter0_d_4140_678)">
<path d="M14.7207 4.22266C14.7663 4.17708 14.821 4.17025 14.8848 4.20215C14.9486 4.23405 14.9805 4.2819 14.9805 4.3457V9.9375C14.9805 10.3021 14.8529 10.612 14.5977 10.8672C14.3424 11.1224 14.0326 11.25 13.668 11.25H2.29297C1.92839 11.25 1.61849 11.1224 1.36328 10.8672C1.10807 10.612 0.980469 10.3021 0.980469 9.9375V4.3457C0.980469 4.2819 1.01009 4.23405 1.06934 4.20215C1.12858 4.17025 1.18555 4.17708 1.24023 4.22266C1.55013 4.45964 1.98307 4.7832 2.53906 5.19336C3.09505 5.60352 4.07031 6.31445 5.46484 7.32617C5.7474 7.53581 6.11654 7.80697 6.57227 8.13965C7.02799 8.47233 7.4974 8.63411 7.98047 8.625C8.47266 8.63411 8.94661 8.47005 9.40234 8.13281C9.85807 7.79557 10.2272 7.52669 10.5098 7.32617C11.9043 6.31445 12.8773 5.60352 13.4287 5.19336C13.9801 4.7832 14.4108 4.45964 14.7207 4.22266ZM7.98047 7.75C7.66146 7.75911 7.30371 7.61328 6.90723 7.3125C6.51074 7.01172 6.19857 6.7793 5.9707 6.61523C4.1569 5.30273 3.01758 4.47103 2.55273 4.12012C2.08789 3.76921 1.64583 3.42969 1.22656 3.10156C1.15365 3.03776 1.0944 2.96029 1.04883 2.86914C1.00326 2.77799 0.980469 2.68229 0.980469 2.58203V2.0625C0.980469 1.69792 1.10807 1.38802 1.36328 1.13281C1.61849 0.877604 1.92839 0.75 2.29297 0.75H13.668C14.0326 0.75 14.3424 0.877604 14.5977 1.13281C14.8529 1.38802 14.9805 1.69792 14.9805 2.0625V2.58203C14.9805 2.68229 14.9577 2.77799 14.9121 2.86914C14.8665 2.96029 14.8073 3.03776 14.7344 3.10156C14.3151 3.42969 13.873 3.76921 13.4082 4.12012C12.9434 4.47103 11.804 5.30273 9.99023 6.61523C9.76237 6.7793 9.4502 7.01172 9.05371 7.3125C8.65723 7.61328 8.29948 7.75911 7.98047 7.75Z" fill="#EEC044"/>
</g>
<defs>
<filter id="filter0_d_4140_678" x="-3.01953" y="0.75" width="22" height="18.5" filterUnits="userSpaceOnUse" color-interpolation-filters="sRGB">
<feFlood flood-opacity="0" result="BackgroundImageFix"/>
<feColorMatrix in="SourceAlpha" type="matrix" values="0 0 0 0 0 0 0 0 0 0 0 0 0 0 0 0 0 0 127 0" result="hardAlpha"/>
<feOffset dy="4"/>
<feGaussianBlur stdDeviation="2"/>
<feComposite in2="hardAlpha" operator="out"/>
<feColorMatrix type="matrix" values="0 0 0 0 0 0 0 0 0 0 0 0 0 0 0 0 0 0 0.25 0"/>
<feBlend mode="normal" in2="BackgroundImageFix" result="effect1_dropShadow_4140_678"/>
<feBlend mode="normal" in="SourceGraphic" in2="effect1_dropShadow_4140_678" result="shape"/>
</filter>
</defs>
</svg>
