<svg width="13" height="16" viewBox="0 0 13 16" fill="none" xmlns="http://www.w3.org/2000/svg">
<path d="M6.98047 0C6.15755 0 5.38151 0.15625 4.65234 0.46875C3.92318 0.78125 3.28516 1.21094 2.73828 1.75781C2.19141 2.30469 1.76172 2.94271 1.44922 3.67188C1.13672 4.40104 0.980469 5.17708 0.980469 6C0.980469 7.10417 1.27214 8.23438 1.85547 9.39062C2.42839 10.5365 3.06901 11.5833 3.77734 12.5312C4.48568 13.4792 5.14193 14.2656 5.74609 14.8906C6.36068 15.5156 6.69401 15.8542 6.74609 15.9062C6.77734 15.9375 6.8138 15.9609 6.85547 15.9766C6.89714 15.9922 6.9388 16 6.98047 16C7.02214 16 7.0638 15.9922 7.10547 15.9766C7.14714 15.9609 7.18359 15.9375 7.21484 15.9062C7.26693 15.8542 7.60026 15.5156 8.21484 14.8906C8.81901 14.2656 9.47526 13.4792 10.1836 12.5312C10.8919 11.5833 11.5326 10.5365 12.1055 9.39062C12.6888 8.23438 12.9805 7.10417 12.9805 6C12.9805 5.17708 12.8242 4.40104 12.5117 3.67188C12.1992 2.94271 11.7695 2.30469 11.2227 1.75781C10.6758 1.21094 10.0378 0.78125 9.30859 0.46875C8.57943 0.15625 7.80339 0 6.98047 0ZM6.98047 9.32812C6.52214 9.32812 6.08984 9.24479 5.68359 9.07812C5.27734 8.90104 4.92318 8.66146 4.62109 8.35938C4.31901 8.05729 4.07943 7.70312 3.90234 7.29688C3.73568 6.89062 3.65234 6.45833 3.65234 6C3.65234 5.54167 3.73568 5.10938 3.90234 4.70312C4.07943 4.29688 4.31901 3.94271 4.62109 3.64062C4.92318 3.33854 5.27734 3.09896 5.68359 2.92188C6.08984 2.75521 6.52214 2.67188 6.98047 2.67188C7.4388 2.67188 7.87109 2.75521 8.27734 2.92188C8.68359 3.09896 9.03776 3.33854 9.33984 3.64062C9.64193 3.94271 9.88151 4.29688 10.0586 4.70312C10.2253 5.10938 10.3086 5.54167 10.3086 6C10.3086 6.45833 10.2253 6.89062 10.0586 7.29688C9.88151 7.70312 9.64193 8.05729 9.33984 8.35938C9.03776 8.66146 8.68359 8.90104 8.27734 9.07812C7.87109 9.24479 7.4388 9.32812 6.98047 9.32812Z" fill="#EEC044"/>
</svg>
