<svg width="12" height="14" viewBox="0 0 12 14" fill="none" xmlns="http://www.w3.org/2000/svg">
<path d="M6.32812 0.177734C6.97526 0.177734 7.59505 0.282552 8.1875 0.492188C8.77995 0.710938 9.30176 1.01628 9.75293 1.4082C10.2041 1.80013 10.5664 2.26953 10.8398 2.81641C11.1133 3.3724 11.25 3.98763 11.25 4.66211C11.25 5.30013 11.168 5.93815 11.0039 6.57617C10.8398 7.22331 10.5846 7.80208 10.2383 8.3125C9.89193 8.82292 9.45443 9.24219 8.92578 9.57031C8.39714 9.88932 7.76823 10.0488 7.03906 10.0488C6.69271 10.0488 6.33268 9.96452 5.95898 9.7959C5.58529 9.62728 5.31641 9.38346 5.15234 9.06445C4.83333 10.2949 4.59863 11.154 4.44824 11.6416C4.29785 12.1292 3.88086 12.8424 3.19727 13.7812C3.12435 13.8086 3.08561 13.8223 3.08105 13.8223C3.0765 13.8223 3.05143 13.7949 3.00586 13.7402C2.97852 13.485 2.95117 13.2298 2.92383 12.9746C2.89648 12.7194 2.88281 12.4642 2.88281 12.209C2.88281 11.7897 2.92383 11.3294 3.00586 10.8281C3.08789 10.3359 3.19043 9.83464 3.31348 9.32422C3.43652 8.8138 3.56185 8.31706 3.68945 7.83398C3.82617 7.3418 3.9401 6.89062 4.03125 6.48047C3.93099 6.27083 3.86263 6.04525 3.82617 5.80371C3.78971 5.56217 3.77148 5.32747 3.77148 5.09961C3.77148 4.55273 3.90365 4.12435 4.16797 3.81445C4.43229 3.50456 4.72624 3.31543 5.0498 3.24707C5.37337 3.17871 5.66732 3.24023 5.93164 3.43164C6.20508 3.62305 6.3418 3.94206 6.3418 4.38867C6.3418 4.92643 6.22103 5.44824 5.97949 5.9541C5.73796 6.45996 5.61719 6.97266 5.61719 7.49219C5.61719 7.84766 5.74251 8.13704 5.99316 8.36035C6.24382 8.58366 6.53776 8.69531 6.875 8.69531C7.34896 8.69531 7.74544 8.54492 8.06445 8.24414C8.37435 7.94336 8.625 7.57878 8.81641 7.15039C9.00781 6.72201 9.14453 6.26628 9.22656 5.7832C9.30859 5.30013 9.34961 4.8763 9.34961 4.51172C9.34961 4.02865 9.26758 3.60026 9.10352 3.22656C8.93945 2.85286 8.71387 2.53841 8.42676 2.2832C8.13965 2.02799 7.79557 1.83659 7.39453 1.70898C7.0026 1.58138 6.57422 1.51758 6.10938 1.51758C5.5625 1.51758 5.05664 1.60872 4.5918 1.79102C4.12695 1.97331 3.72135 2.23079 3.375 2.56348C3.02865 2.89616 2.75977 3.29492 2.56836 3.75977C2.36784 4.21549 2.26758 4.72135 2.26758 5.27734C2.26758 5.80599 2.37467 6.21387 2.58887 6.50098C2.80306 6.78809 2.91016 6.99544 2.91016 7.12305C2.91016 7.23242 2.8737 7.42155 2.80078 7.69043C2.72786 7.95931 2.62305 8.09375 2.48633 8.09375C2.1582 8.09375 1.78678 7.83171 1.37207 7.30762C0.957357 6.78353 0.75 6.03841 0.75 5.07227C0.75 4.31576 0.909505 3.63672 1.22852 3.03516C1.54753 2.42448 1.9668 1.90951 2.48633 1.49023C3.00586 1.07096 3.60286 0.747396 4.27734 0.519531C4.94271 0.291667 5.6263 0.177734 6.32812 0.177734Z" fill="white"/>
</svg>
