<svg width="13" height="13" viewBox="0 0 13 13" fill="none" xmlns="http://www.w3.org/2000/svg">
<path d="M12.8011 0.789146C12.8715 0.836054 12.9223 0.896643 12.9536 0.970913C12.9848 1.04518 12.9927 1.12532 12.977 1.21131L11.2649 11.5075C11.2571 11.57 11.2336 11.6267 11.1945 11.6775C11.1554 11.7283 11.1085 11.7733 11.0538 11.8124C11.0225 11.828 10.9893 11.8397 10.9541 11.8475C10.919 11.8554 10.8818 11.8593 10.8427 11.8593C10.8193 11.8593 10.7939 11.8573 10.7665 11.8534C10.7391 11.8495 10.7098 11.8397 10.6786 11.8241L7.65303 10.5928L6.02301 12.5629C5.98392 12.6176 5.93505 12.6567 5.87642 12.6802C5.81779 12.7036 5.7572 12.7153 5.69465 12.7153C5.6712 12.7153 5.64775 12.7134 5.62429 12.7095C5.60084 12.7056 5.57739 12.6997 5.55393 12.6919C5.46794 12.6606 5.39953 12.6078 5.34871 12.5336C5.2979 12.4593 5.27249 12.3792 5.27249 12.2932V9.9478L11.0538 2.85307L3.90045 9.05656L1.25019 7.96597C1.17201 7.93469 1.10946 7.88583 1.06256 7.81938C1.01565 7.75293 0.988287 7.68061 0.980469 7.60243C0.980469 7.51644 0.998059 7.43826 1.03324 7.3679C1.06842 7.29754 1.12119 7.24281 1.19155 7.20372L12.3438 0.765693C12.375 0.750057 12.4102 0.736376 12.4493 0.724649C12.4884 0.712922 12.5236 0.707059 12.5548 0.707059C12.6018 0.707059 12.6467 0.714877 12.6897 0.730513C12.7327 0.746148 12.7698 0.765693 12.8011 0.789146Z" fill="white"/>
</svg>
