<svg width="14" height="13" viewBox="0 0 14 13" fill="none" xmlns="http://www.w3.org/2000/svg">
<g filter="url(#filter0_d_4140_609)">
<path d="M12.5645 3.14258C12.5645 3.20638 12.5645 3.27018 12.5645 3.33398C12.5645 3.39779 12.5645 3.46159 12.5645 3.52539C12.5645 4.47331 12.3867 5.43034 12.0312 6.39648C11.6758 7.36263 11.154 8.23763 10.4658 9.02148C9.77767 9.80534 8.92318 10.4479 7.90234 10.9492C6.89062 11.4414 5.72396 11.6875 4.40234 11.6875C4.0013 11.6875 3.60482 11.6602 3.21289 11.6055C2.82096 11.5417 2.44043 11.4551 2.07129 11.3457C1.70215 11.2363 1.3444 11.1042 0.998047 10.9492C0.651693 10.7852 0.31901 10.6029 0 10.4023C0.11849 10.4115 0.234701 10.4183 0.348633 10.4229C0.462565 10.4274 0.578776 10.4297 0.697266 10.4297C1.36263 10.4297 1.99837 10.3226 2.60449 10.1084C3.21061 9.89421 3.75977 9.5957 4.25195 9.21289C3.62305 9.19466 3.06478 8.9987 2.57715 8.625C2.08952 8.2513 1.75456 7.7819 1.57227 7.2168C1.66341 7.22591 1.75228 7.23503 1.83887 7.24414C1.92546 7.25326 2.01888 7.25781 2.11914 7.25781C2.24674 7.25781 2.37435 7.25098 2.50195 7.2373C2.62956 7.22363 2.7526 7.19857 2.87109 7.16211C2.21484 7.02539 1.66797 6.69727 1.23047 6.17773C0.792969 5.6582 0.574219 5.04753 0.574219 4.3457V4.31836C0.765625 4.41862 0.970703 4.50065 1.18945 4.56445C1.4082 4.62826 1.63151 4.66471 1.85938 4.67383C1.47656 4.41862 1.16895 4.08138 0.936523 3.66211C0.704102 3.24284 0.587891 2.78255 0.587891 2.28125C0.587891 2.01693 0.62207 1.764 0.69043 1.52246C0.758789 1.28092 0.852214 1.05534 0.970703 0.845703C1.32617 1.27409 1.72266 1.66602 2.16016 2.02148C2.59766 2.37695 3.06706 2.68457 3.56836 2.94434C4.06966 3.2041 4.60286 3.41146 5.16797 3.56641C5.72396 3.72135 6.29818 3.8125 6.89062 3.83984C6.8724 3.73047 6.85645 3.62109 6.84277 3.51172C6.8291 3.40234 6.82227 3.29297 6.82227 3.18359C6.82227 2.79167 6.89518 2.41797 7.04102 2.0625C7.19596 1.71615 7.40332 1.41309 7.66309 1.15332C7.92285 0.893555 8.22591 0.690755 8.57227 0.544922C8.91862 0.389974 9.29232 0.3125 9.69336 0.3125C10.1035 0.3125 10.4886 0.394531 10.8486 0.558594C11.2087 0.722656 11.5208 0.941406 11.7852 1.21484C12.1133 1.16016 12.43 1.07357 12.7354 0.955078C13.0407 0.836589 13.3301 0.695312 13.6035 0.53125C13.5033 0.859375 13.3438 1.16016 13.125 1.43359C12.9062 1.70703 12.6465 1.93034 12.3457 2.10352C12.6374 2.07617 12.9222 2.02376 13.2002 1.94629C13.4782 1.86882 13.7448 1.77539 14 1.66602C13.8086 1.94857 13.5898 2.21517 13.3438 2.46582C13.0977 2.71647 12.8379 2.94206 12.5645 3.14258Z" fill="white"/>
</g>
<defs>
<filter id="filter0_d_4140_609" x="-4" y="0.3125" width="22" height="19.375" filterUnits="userSpaceOnUse" color-interpolation-filters="sRGB">
<feFlood flood-opacity="0" result="BackgroundImageFix"/>
<feColorMatrix in="SourceAlpha" type="matrix" values="0 0 0 0 0 0 0 0 0 0 0 0 0 0 0 0 0 0 127 0" result="hardAlpha"/>
<feOffset dy="4"/>
<feGaussianBlur stdDeviation="2"/>
<feComposite in2="hardAlpha" operator="out"/>
<feColorMatrix type="matrix" values="0 0 0 0 0 0 0 0 0 0 0 0 0 0 0 0 0 0 0.25 0"/>
<feBlend mode="normal" in2="BackgroundImageFix" result="effect1_dropShadow_4140_609"/>
<feBlend mode="normal" in="SourceGraphic" in2="effect1_dropShadow_4140_609" result="shape"/>
</filter>
</defs>
</svg>
