<svg width="17" height="16" viewBox="0 0 17 16" fill="none" xmlns="http://www.w3.org/2000/svg">
<path d="M16.3032 6.14065C16.2511 5.97399 16.1599 5.83857 16.0297 5.7344C15.8995 5.63024 15.7511 5.56774 15.5844 5.5469L10.9594 5.14065L9.13129 0.859404C9.06879 0.703154 8.96463 0.578154 8.81879 0.484404C8.67296 0.390654 8.51671 0.343779 8.35004 0.343779C8.18338 0.343779 8.02713 0.390654 7.88129 0.484404C7.73546 0.578154 7.63129 0.703154 7.56879 0.859404L5.74067 5.14065L1.11567 5.5469C0.949002 5.56774 0.800564 5.63024 0.670356 5.7344C0.540148 5.83857 0.449002 5.97399 0.396918 6.14065C0.344835 6.2969 0.339627 6.45836 0.381293 6.62503C0.42296 6.7917 0.511502 6.93232 0.646918 7.0469L4.13129 10.1094L3.10004 14.6407C3.06879 14.8073 3.08181 14.9688 3.13911 15.125C3.1964 15.2813 3.29275 15.4115 3.42817 15.5157C3.50108 15.5677 3.58181 15.6068 3.67036 15.6328C3.7589 15.6589 3.84483 15.6719 3.92817 15.6719C4.00108 15.6719 4.07661 15.6615 4.15473 15.6407C4.23286 15.6198 4.30317 15.5938 4.36567 15.5625L8.35004 13.1719L12.3344 15.5625C12.4803 15.6459 12.6365 15.6849 12.8032 15.6797C12.9698 15.6745 13.1261 15.6198 13.2719 15.5157C13.4073 15.4115 13.5037 15.2813 13.561 15.125C13.6183 14.9688 13.6313 14.8073 13.6 14.6407L12.5688 10.1094L16.0532 7.0469C16.1886 6.93232 16.2771 6.7917 16.3188 6.62503C16.3605 6.45836 16.3553 6.2969 16.3032 6.14065Z" fill="#EEC044"/>
</svg>
