<svg width="100" height="84" viewBox="0 0 100 84" fill="none" xmlns="http://www.w3.org/2000/svg">
<g filter="url(#filter0_d_4138_683)">
<rect x="10" y="10" width="64" height="64" rx="32" fill="white" shape-rendering="crispEdges"/>
<path d="M56.25 56.6875C55.75 56.1875 55.1562 55.9375 54.4688 55.9375C53.7812 55.9375 53.2083 56.1875 52.75 56.6875L44 65.4375V12.5C44 11.7917 43.7604 11.1979 43.2812 10.7188C42.8021 10.2396 42.2083 10 41.5 10C40.7917 10 40.1979 10.2396 39.7188 10.7188C39.2396 11.1979 39 11.7917 39 12.5V65.4375L30.25 56.6875C29.7917 56.1875 29.2188 55.9375 28.5312 55.9375C27.8438 55.9375 27.25 56.1875 26.75 56.6875C26.25 57.1458 26 57.7188 26 58.4062C26 59.0938 26.25 59.6875 26.75 60.1875L39.75 73.25C40.2083 73.75 40.7917 74 41.5 74C42.2083 74 42.7917 73.75 43.25 73.25L56.25 60.1875C56.75 59.6875 57 59.0938 57 58.4062C57 57.7188 56.75 57.1458 56.25 56.6875Z" fill="#1F1E17"/>
</g>
<defs>
<filter id="filter0_d_4138_683" x="0" y="0" width="100" height="84" filterUnits="userSpaceOnUse" color-interpolation-filters="sRGB">
<feFlood flood-opacity="0" result="BackgroundImageFix"/>
<feColorMatrix in="SourceAlpha" type="matrix" values="0 0 0 0 0 0 0 0 0 0 0 0 0 0 0 0 0 0 127 0" result="hardAlpha"/>
<feOffset/>
<feGaussianBlur stdDeviation="5"/>
<feComposite in2="hardAlpha" operator="out"/>
<feColorMatrix type="matrix" values="0 0 0 0 0 0 0 0 0 0 0 0 0 0 0 0 0 0 0.1 0"/>
<feBlend mode="normal" in2="BackgroundImageFix" result="effect1_dropShadow_4138_683"/>
<feBlend mode="normal" in="SourceGraphic" in2="effect1_dropShadow_4138_683" result="shape"/>
</filter>
</defs>
</svg>
